<?xml version="1.0" encoding="UTF-8"?>
<svg id="Layer_1" data-name="Layer 1" xmlns="http://www.w3.org/2000/svg" viewBox="0 0 4096 4096">
  <defs>
    <style>
      .cls-1 {
        fill: #231f20;
      }

      .cls-2 {
        fill: none;
        stroke: #f2f2f2;
        stroke-miterlimit: 10;
        stroke-width: 189px;
      }
    </style>
  </defs>
  <path class="cls-1" d="M4096,2048c0,1131.08-916.92,2047.95-2048,2048C916.97,4096.05.04,3179.12,0,2048-.04,916.92,916.92,0,2048,0s2048,916.92,2048,2048Z"/>
  <path class="cls-2" d="M1010.79,3814.31c87.81-141.25,741.07-680.25,852.67-1612.68,65.05-543.54,65.05-2022.37,42.21-1863.84-2.26,15.72-40.84,1764.52-44.57,2028.82-16.88,1193.59-20.93,1106.22-16.88,1193.59.97,20.98,236.39,57.26,304.35,71.82,113.7,24.36,449.6-40.4,669.65-197.42,307.93-219.72,265.47-729.46,135.91-965.93-129.43-236.24-888.27-635.87-1703.73,276.67"/>
</svg>